<mxfile host="app.diagrams.net" agent="Mozilla/5.0 (X11; Linux x86_64) AppleWebKit/537.36 (KHTML, like Gecko) Chrome/131.0.0.0 Safari/537.36" version="24.8.4">
  <diagram id="C5RBs43oDa-KdzZeNtuy" name="Page-1">
    <mxGraphModel dx="1687" dy="887" grid="1" gridSize="10" guides="1" tooltips="1" connect="1" arrows="1" fold="1" page="1" pageScale="1" pageWidth="827" pageHeight="1169" math="0" shadow="0">
      <root>
        <mxCell id="WIyWlLk6GJQsqaUBKTNV-0" />
        <mxCell id="WIyWlLk6GJQsqaUBKTNV-1" parent="WIyWlLk6GJQsqaUBKTNV-0" />
        <mxCell id="K4O4A1Wco0MbeICrZv9e-1" value="&lt;p style=&quot;line-height: 1px; text-align: left; margin-bottom: 0in; direction: ltr; background: transparent; font-family: Calibri, sans-serif; font-size: medium; margin-top: 0px;&quot; align=&quot;center&quot; class=&quot;western&quot; lang=&quot;uz-Cyrl-UZ&quot;&gt;&lt;font style=&quot;&quot; color=&quot;#000000&quot;&gt;&lt;font style=&quot;&quot; face=&quot;Times New Roman, serif&quot;&gt;&lt;font style=&quot;font-size: 12pt;&quot;&gt;Ариза берувчи&lt;/font&gt;&lt;/font&gt;&lt;/font&gt;&lt;/p&gt;" style="swimlane;horizontal=0;whiteSpace=wrap;html=1;" vertex="1" parent="WIyWlLk6GJQsqaUBKTNV-1">
          <mxGeometry x="10" y="10" width="1740" height="320" as="geometry" />
        </mxCell>
        <mxCell id="K4O4A1Wco0MbeICrZv9e-8" value="" style="edgeStyle=orthogonalEdgeStyle;rounded=0;orthogonalLoop=1;jettySize=auto;html=1;" edge="1" parent="K4O4A1Wco0MbeICrZv9e-1" source="K4O4A1Wco0MbeICrZv9e-6" target="K4O4A1Wco0MbeICrZv9e-7">
          <mxGeometry relative="1" as="geometry" />
        </mxCell>
        <mxCell id="K4O4A1Wco0MbeICrZv9e-6" value="&lt;p style=&quot;line-height: 100%; text-indent: 0.16in; margin-bottom: 0in; margin-top: 0px; font-size: 14px;&quot; class=&quot;western&quot; lang=&quot;uz-Cyrl-UZ&quot;&gt;&lt;font style=&quot;font-size: 14px;&quot;&gt;&lt;br&gt;&lt;font style=&quot;font-size: 14px;&quot; face=&quot;Times New Roman, serif&quot;&gt;&lt;font style=&quot;font-size: 14px;&quot;&gt;Автотранспорт&lt;br&gt;воситаларини  турини тасдиқлашдан&lt;br&gt;ўтказиш учун ҳужжатлар тўпламини&lt;br&gt;шакллантиради.&lt;/font&gt;&lt;/font&gt;&lt;/font&gt;&lt;/p&gt;&lt;div style=&quot;font-size: 14px;&quot;&gt;&lt;br&gt;&lt;/div&gt;" style="rounded=0;whiteSpace=wrap;html=1;imageAspect=1;align=center;" vertex="1" parent="K4O4A1Wco0MbeICrZv9e-1">
          <mxGeometry x="60" y="30" width="240" height="80" as="geometry" />
        </mxCell>
        <mxCell id="K4O4A1Wco0MbeICrZv9e-13" value="" style="edgeStyle=orthogonalEdgeStyle;rounded=0;orthogonalLoop=1;jettySize=auto;html=1;" edge="1" parent="K4O4A1Wco0MbeICrZv9e-1" source="K4O4A1Wco0MbeICrZv9e-7" target="K4O4A1Wco0MbeICrZv9e-11">
          <mxGeometry relative="1" as="geometry">
            <Array as="points">
              <mxPoint x="180" y="141" />
            </Array>
          </mxGeometry>
        </mxCell>
        <mxCell id="K4O4A1Wco0MbeICrZv9e-7" value="Сертификатлаштириш органига автотранспорт воситаларини&amp;nbsp; турини тасдиқлашдан ўтказиш учун ариза беради." style="whiteSpace=wrap;html=1;rounded=0;align=center;" vertex="1" parent="K4O4A1Wco0MbeICrZv9e-1">
          <mxGeometry x="45" y="180" width="270" height="80" as="geometry" />
        </mxCell>
        <mxCell id="K4O4A1Wco0MbeICrZv9e-11" value="Бажариш муддатлари:(Ариза берувчининг хоҳишига кўра)" style="rounded=1;whiteSpace=wrap;html=1;fillColor=#d5e8d4;strokeColor=#82b366;" vertex="1" parent="K4O4A1Wco0MbeICrZv9e-1">
          <mxGeometry x="210" y="120" width="185" height="41" as="geometry" />
        </mxCell>
        <mxCell id="K4O4A1Wco0MbeICrZv9e-46" value="хат жўнатилади" style="shape=note;whiteSpace=wrap;html=1;backgroundOutline=1;darkOpacity=0.05;" vertex="1" parent="K4O4A1Wco0MbeICrZv9e-1">
          <mxGeometry x="490" y="140" width="80" height="100" as="geometry" />
        </mxCell>
        <mxCell id="K4O4A1Wco0MbeICrZv9e-73" value="Синовларнинг салбий натижалари, шунингдек ҳужжатлар тўплами тўлиқ тақдим этилмаган тақдирда" style="ellipse;whiteSpace=wrap;html=1;align=center;fontStyle=4;fillColor=#dae8fc;strokeColor=#6c8ebf;" vertex="1" parent="K4O4A1Wco0MbeICrZv9e-1">
          <mxGeometry x="1210" y="230" width="220" height="80" as="geometry" />
        </mxCell>
        <mxCell id="K4O4A1Wco0MbeICrZv9e-76" value="&lt;span style=&quot;color: rgb(0, 0, 0); font-family: Helvetica; font-size: 11px; font-style: normal; font-variant-ligatures: normal; font-variant-caps: normal; font-weight: 400; letter-spacing: normal; orphans: 2; text-align: center; text-indent: 0px; text-transform: none; widows: 2; word-spacing: 0px; -webkit-text-stroke-width: 0px; white-space: normal; background-color: rgb(251, 251, 251); text-decoration-thickness: initial; text-decoration-style: initial; text-decoration-color: initial; display: inline !important; float: none;&quot;&gt;Pад этганлиги тўғрисида хабар&lt;/span&gt;" style="shape=note;whiteSpace=wrap;html=1;backgroundOutline=1;darkOpacity=0.05;" vertex="1" parent="K4O4A1Wco0MbeICrZv9e-1">
          <mxGeometry x="990" y="120" width="80" height="100" as="geometry" />
        </mxCell>
        <mxCell id="K4O4A1Wco0MbeICrZv9e-3" value="&lt;p style=&quot;line-height: 1px; text-align: left; margin-bottom: 0in; direction: ltr; background: transparent; font-family: Calibri, sans-serif; font-size: medium; margin-top: 0px;&quot; align=&quot;center&quot; class=&quot;western&quot; lang=&quot;uz-Cyrl-UZ&quot;&gt;&lt;font style=&quot;&quot; color=&quot;#000000&quot;&gt;&lt;font style=&quot;&quot; face=&quot;Times New Roman, serif&quot;&gt;&lt;font style=&quot;font-size: 12pt;&quot;&gt;Сертификатлаштириш органи&lt;/font&gt;&lt;/font&gt;&lt;/font&gt;&lt;/p&gt;" style="swimlane;horizontal=0;whiteSpace=wrap;html=1;" vertex="1" parent="WIyWlLk6GJQsqaUBKTNV-1">
          <mxGeometry x="10" y="330" width="2750" height="490" as="geometry" />
        </mxCell>
        <mxCell id="K4O4A1Wco0MbeICrZv9e-20" value="" style="edgeStyle=orthogonalEdgeStyle;rounded=0;orthogonalLoop=1;jettySize=auto;html=1;" edge="1" parent="K4O4A1Wco0MbeICrZv9e-3" source="K4O4A1Wco0MbeICrZv9e-17" target="K4O4A1Wco0MbeICrZv9e-19">
          <mxGeometry relative="1" as="geometry" />
        </mxCell>
        <mxCell id="K4O4A1Wco0MbeICrZv9e-17" value="Келиб тушган ариза ва унга илова қилинган ҳужжатларни ўрганиб чиқиб." style="rounded=0;whiteSpace=wrap;html=1;" vertex="1" parent="K4O4A1Wco0MbeICrZv9e-3">
          <mxGeometry x="55" y="90" width="250" height="100" as="geometry" />
        </mxCell>
        <mxCell id="K4O4A1Wco0MbeICrZv9e-22" value="" style="edgeStyle=orthogonalEdgeStyle;rounded=0;orthogonalLoop=1;jettySize=auto;html=1;" edge="1" parent="K4O4A1Wco0MbeICrZv9e-3" source="K4O4A1Wco0MbeICrZv9e-19" target="K4O4A1Wco0MbeICrZv9e-21">
          <mxGeometry relative="1" as="geometry" />
        </mxCell>
        <mxCell id="K4O4A1Wco0MbeICrZv9e-25" value="" style="edgeStyle=orthogonalEdgeStyle;rounded=0;orthogonalLoop=1;jettySize=auto;html=1;" edge="1" parent="K4O4A1Wco0MbeICrZv9e-3" source="K4O4A1Wco0MbeICrZv9e-19" target="K4O4A1Wco0MbeICrZv9e-24">
          <mxGeometry relative="1" as="geometry" />
        </mxCell>
        <mxCell id="K4O4A1Wco0MbeICrZv9e-19" value="" style="rhombus;whiteSpace=wrap;html=1;rounded=0;" vertex="1" parent="K4O4A1Wco0MbeICrZv9e-3">
          <mxGeometry x="490" y="100" width="80" height="80" as="geometry" />
        </mxCell>
        <mxCell id="K4O4A1Wco0MbeICrZv9e-21" value="Aсослантирилган ҳолатда аризачига рад жавобини беради" style="whiteSpace=wrap;html=1;rounded=0;fillColor=#f8cecc;strokeColor=#b85450;" vertex="1" parent="K4O4A1Wco0MbeICrZv9e-3">
          <mxGeometry x="470" y="10" width="120" height="60" as="geometry" />
        </mxCell>
        <mxCell id="K4O4A1Wco0MbeICrZv9e-32" value="" style="edgeStyle=orthogonalEdgeStyle;rounded=0;orthogonalLoop=1;jettySize=auto;html=1;" edge="1" parent="K4O4A1Wco0MbeICrZv9e-3" source="K4O4A1Wco0MbeICrZv9e-24" target="K4O4A1Wco0MbeICrZv9e-31">
          <mxGeometry relative="1" as="geometry" />
        </mxCell>
        <mxCell id="K4O4A1Wco0MbeICrZv9e-24" value="&lt;span style=&quot;color: rgb(0, 0, 0); font-family: Helvetica; font-size: 12px; font-style: normal; font-variant-ligatures: normal; font-variant-caps: normal; font-weight: 400; letter-spacing: normal; orphans: 2; text-align: center; text-indent: 0px; text-transform: none; widows: 2; word-spacing: 0px; -webkit-text-stroke-width: 0px; white-space: normal; background-color: rgb(251, 251, 251); text-decoration-thickness: initial; text-decoration-style: initial; text-decoration-color: initial; display: inline !important; float: none;&quot;&gt;&lt;span&gt;&amp;nbsp;&lt;/span&gt;белгиланган тартибда сертификатлаштириш ишларини амалга оширишга қарор қабул қилади&lt;/span&gt;" style="whiteSpace=wrap;html=1;rounded=0;" vertex="1" parent="K4O4A1Wco0MbeICrZv9e-3">
          <mxGeometry x="690" y="95" width="160" height="90" as="geometry" />
        </mxCell>
        <mxCell id="K4O4A1Wco0MbeICrZv9e-29" style="edgeStyle=orthogonalEdgeStyle;rounded=0;orthogonalLoop=1;jettySize=auto;html=1;" edge="1" parent="K4O4A1Wco0MbeICrZv9e-3" source="K4O4A1Wco0MbeICrZv9e-28">
          <mxGeometry relative="1" as="geometry">
            <mxPoint x="410" y="140" as="targetPoint" />
          </mxGeometry>
        </mxCell>
        <mxCell id="K4O4A1Wco0MbeICrZv9e-30" style="edgeStyle=orthogonalEdgeStyle;rounded=0;orthogonalLoop=1;jettySize=auto;html=1;exitX=1;exitY=0.5;exitDx=0;exitDy=0;" edge="1" parent="K4O4A1Wco0MbeICrZv9e-3" source="K4O4A1Wco0MbeICrZv9e-28">
          <mxGeometry relative="1" as="geometry">
            <mxPoint x="660" y="230" as="targetPoint" />
            <Array as="points">
              <mxPoint x="651" y="225" />
              <mxPoint x="651" y="240" />
            </Array>
          </mxGeometry>
        </mxCell>
        <mxCell id="K4O4A1Wco0MbeICrZv9e-28" value="&lt;p style=&quot;line-height: 1px; text-align: left; margin-bottom: 0in; direction: ltr; background: transparent; font-family: Calibri, sans-serif; font-size: medium; margin-top: 0px;&quot; align=&quot;center&quot; class=&quot;western&quot; lang=&quot;uz-Cyrl-UZ&quot;&gt;&lt;font face=&quot;Times New Roman, serif&quot;&gt;&lt;font style=&quot;font-size: 12pt;&quot;&gt;2 кун ичида&lt;/font&gt;&lt;/font&gt;&lt;/p&gt;" style="rounded=1;whiteSpace=wrap;html=1;fillColor=#d5e8d4;strokeColor=#82b366;" vertex="1" parent="K4O4A1Wco0MbeICrZv9e-3">
          <mxGeometry x="480" y="210" width="110" height="30" as="geometry" />
        </mxCell>
        <mxCell id="K4O4A1Wco0MbeICrZv9e-38" style="edgeStyle=orthogonalEdgeStyle;rounded=0;orthogonalLoop=1;jettySize=auto;html=1;entryX=0;entryY=0.5;entryDx=0;entryDy=0;" edge="1" parent="K4O4A1Wco0MbeICrZv9e-3" source="K4O4A1Wco0MbeICrZv9e-31" target="K4O4A1Wco0MbeICrZv9e-36">
          <mxGeometry relative="1" as="geometry" />
        </mxCell>
        <mxCell id="K4O4A1Wco0MbeICrZv9e-31" value="Қарор қабул қилингандан сўнг Техник жиҳатдан тартибга солиш соҳасида назорат инспекциясини ишлаб чиқариш шароитини жойида баҳолашда иштирок этишни сўраб мурожаат қилади." style="whiteSpace=wrap;html=1;rounded=0;" vertex="1" parent="K4O4A1Wco0MbeICrZv9e-3">
          <mxGeometry x="530" y="270" width="260" height="90" as="geometry" />
        </mxCell>
        <mxCell id="K4O4A1Wco0MbeICrZv9e-36" value="&lt;p style=&quot;line-height: 1px; text-align: left; margin-bottom: 0in; direction: ltr; background: transparent; font-family: Calibri, sans-serif; font-size: medium; margin-top: 0px;&quot; align=&quot;center&quot; class=&quot;western&quot; lang=&quot;uz-Cyrl-UZ&quot;&gt;&lt;font face=&quot;Times New Roman, serif&quot;&gt;&lt;font style=&quot;font-size: 12pt;&quot;&gt;1 кун ичида&lt;/font&gt;&lt;/font&gt;&lt;/p&gt;" style="rounded=1;whiteSpace=wrap;html=1;fillColor=#d5e8d4;strokeColor=#82b366;" vertex="1" parent="K4O4A1Wco0MbeICrZv9e-3">
          <mxGeometry x="860" y="300" width="100" height="30" as="geometry" />
        </mxCell>
        <mxCell id="K4O4A1Wco0MbeICrZv9e-69" style="edgeStyle=orthogonalEdgeStyle;rounded=0;orthogonalLoop=1;jettySize=auto;html=1;entryX=0.5;entryY=1;entryDx=0;entryDy=0;" edge="1" parent="K4O4A1Wco0MbeICrZv9e-3" source="K4O4A1Wco0MbeICrZv9e-44" target="K4O4A1Wco0MbeICrZv9e-68">
          <mxGeometry relative="1" as="geometry" />
        </mxCell>
        <mxCell id="K4O4A1Wco0MbeICrZv9e-44" value="Техник жиҳатдан тартибга солиш соҳасида назорат инспекцияси ҳамда серитификатлаштириш органи ишлаб чиқариш жараёни баҳолаши&amp;nbsp;" style="whiteSpace=wrap;html=1;rounded=0;" vertex="1" parent="K4O4A1Wco0MbeICrZv9e-3">
          <mxGeometry x="1080" y="350" width="260" height="90" as="geometry" />
        </mxCell>
        <mxCell id="K4O4A1Wco0MbeICrZv9e-80" value="" style="edgeStyle=orthogonalEdgeStyle;rounded=0;orthogonalLoop=1;jettySize=auto;html=1;" edge="1" parent="K4O4A1Wco0MbeICrZv9e-3" source="K4O4A1Wco0MbeICrZv9e-51" target="K4O4A1Wco0MbeICrZv9e-60">
          <mxGeometry relative="1" as="geometry" />
        </mxCell>
        <mxCell id="K4O4A1Wco0MbeICrZv9e-51" value="Сертификатлаштириш органи томонидан белгиланган тартибда маҳсулотлардан намуна олиниб, техник регламент талаблари асосида тўлиқ баҳоланади." style="whiteSpace=wrap;html=1;rounded=0;" vertex="1" parent="K4O4A1Wco0MbeICrZv9e-3">
          <mxGeometry x="1440" y="40" width="190" height="100" as="geometry" />
        </mxCell>
        <mxCell id="K4O4A1Wco0MbeICrZv9e-60" value="&lt;div style=&quot;text-align: center;&quot;&gt;&lt;span style=&quot;background-color: initial;&quot;&gt;Шу жумладан, зарур ҳолларда тегишли идоралардан ҳужжатлар олинади :&lt;/span&gt;&lt;/div&gt;&lt;div&gt;&lt;ol&gt;&lt;li&gt;синов баённомалари,&lt;/li&gt;&lt;li&gt;ишлаб чиқаришни баҳолаш далолатномаси,&lt;/li&gt;&lt;li&gt;санитария-эпидемиология,&lt;/li&gt;&lt;li&gt;&amp;nbsp;ветеринария,&lt;/li&gt;&lt;li&gt;фитосанитария хулосаларни,&lt;/li&gt;&lt;li&gt;&amp;nbsp;экологик экспертиза,&lt;/li&gt;&lt;li&gt;&amp;nbsp;бошқалар&lt;/li&gt;&lt;/ol&gt;&lt;/div&gt;" style="whiteSpace=wrap;html=1;rounded=1;fillColor=#fff2cc;strokeColor=#d6b656;align=left;" vertex="1" parent="K4O4A1Wco0MbeICrZv9e-3">
          <mxGeometry x="1730" y="10" width="290" height="160" as="geometry" />
        </mxCell>
        <mxCell id="K4O4A1Wco0MbeICrZv9e-71" style="edgeStyle=orthogonalEdgeStyle;rounded=0;orthogonalLoop=1;jettySize=auto;html=1;entryX=0;entryY=0.5;entryDx=0;entryDy=0;" edge="1" parent="K4O4A1Wco0MbeICrZv9e-3" source="K4O4A1Wco0MbeICrZv9e-68" target="K4O4A1Wco0MbeICrZv9e-51">
          <mxGeometry relative="1" as="geometry" />
        </mxCell>
        <mxCell id="K4O4A1Wco0MbeICrZv9e-75" value="" style="edgeStyle=orthogonalEdgeStyle;rounded=0;orthogonalLoop=1;jettySize=auto;html=1;exitX=0.5;exitY=0;exitDx=0;exitDy=0;entryX=1;entryY=0.453;entryDx=0;entryDy=0;entryPerimeter=0;" edge="1" parent="K4O4A1Wco0MbeICrZv9e-3" source="K4O4A1Wco0MbeICrZv9e-68" target="K4O4A1Wco0MbeICrZv9e-74">
          <mxGeometry relative="1" as="geometry">
            <mxPoint x="1140" y="70" as="targetPoint" />
            <Array as="points">
              <mxPoint x="1210" y="76" />
            </Array>
          </mxGeometry>
        </mxCell>
        <mxCell id="K4O4A1Wco0MbeICrZv9e-68" value="" style="rhombus;whiteSpace=wrap;html=1;" vertex="1" parent="K4O4A1Wco0MbeICrZv9e-3">
          <mxGeometry x="1170" y="210" width="80" height="80" as="geometry" />
        </mxCell>
        <mxCell id="K4O4A1Wco0MbeICrZv9e-72" value="" style="edgeStyle=isometricEdgeStyle;endArrow=none;html=1;rounded=0;entryX=0;entryY=0.5;entryDx=0;entryDy=0;" edge="1" parent="K4O4A1Wco0MbeICrZv9e-3" target="K4O4A1Wco0MbeICrZv9e-73">
          <mxGeometry width="50" height="100" relative="1" as="geometry">
            <mxPoint x="1210" y="90" as="sourcePoint" />
            <mxPoint x="1340" y="-50" as="targetPoint" />
          </mxGeometry>
        </mxCell>
        <mxCell id="K4O4A1Wco0MbeICrZv9e-74" value="&lt;font style=&quot;font-size: 11px;&quot;&gt;орган аризачига қонунчиликнинг аниқ нормаларини кўрсатган ҳолда автотранспорт воситаларини турини тасдиқлашни рад этганлиги тўғрисида хабар беради&lt;/font&gt;" style="whiteSpace=wrap;html=1;" vertex="1" parent="K4O4A1Wco0MbeICrZv9e-3">
          <mxGeometry x="930" y="40" width="210" height="80" as="geometry" />
        </mxCell>
        <mxCell id="K4O4A1Wco0MbeICrZv9e-78" value="&lt;font style=&quot;font-size: 12px;&quot;&gt;Синовларнинг ижобий натижалари ва техник регламент&amp;nbsp; талабларига мувофиқлиги тасдиқланган тақдирда, барча расмийлаштирилган ҳужжатлар шакллантиради ва Техник жиҳатдан тартибга солиш соҳасидаги назорат инспекциясига асл нусхаларини юборади.&lt;/font&gt;" style="whiteSpace=wrap;html=1;rounded=0;" vertex="1" parent="K4O4A1Wco0MbeICrZv9e-3">
          <mxGeometry x="1370" y="260" width="360" height="80" as="geometry" />
        </mxCell>
        <mxCell id="K4O4A1Wco0MbeICrZv9e-84" style="edgeStyle=orthogonalEdgeStyle;rounded=0;orthogonalLoop=1;jettySize=auto;html=1;entryX=0.46;entryY=0.019;entryDx=0;entryDy=0;entryPerimeter=0;" edge="1" parent="K4O4A1Wco0MbeICrZv9e-3" source="K4O4A1Wco0MbeICrZv9e-51" target="K4O4A1Wco0MbeICrZv9e-78">
          <mxGeometry relative="1" as="geometry" />
        </mxCell>
        <mxCell id="K4O4A1Wco0MbeICrZv9e-18" style="edgeStyle=orthogonalEdgeStyle;rounded=0;orthogonalLoop=1;jettySize=auto;html=1;" edge="1" parent="WIyWlLk6GJQsqaUBKTNV-1" source="K4O4A1Wco0MbeICrZv9e-7" target="K4O4A1Wco0MbeICrZv9e-17">
          <mxGeometry relative="1" as="geometry" />
        </mxCell>
        <mxCell id="K4O4A1Wco0MbeICrZv9e-35" value="&lt;font style=&quot;font-size: 14px;&quot;&gt;Техник жиҳатдан тартибга солиш соҳасида назорат&lt;/font&gt;&lt;div style=&quot;font-size: 14px;&quot;&gt;&lt;font style=&quot;font-size: 14px;&quot;&gt;&amp;nbsp;инспекцияси&lt;/font&gt;&lt;/div&gt;" style="swimlane;horizontal=0;whiteSpace=wrap;html=1;align=center;startSize=50;" vertex="1" parent="WIyWlLk6GJQsqaUBKTNV-1">
          <mxGeometry x="10" y="820" width="2750" height="390" as="geometry" />
        </mxCell>
        <mxCell id="K4O4A1Wco0MbeICrZv9e-43" value="" style="edgeStyle=orthogonalEdgeStyle;rounded=0;orthogonalLoop=1;jettySize=auto;html=1;" edge="1" parent="K4O4A1Wco0MbeICrZv9e-35" source="K4O4A1Wco0MbeICrZv9e-40" target="K4O4A1Wco0MbeICrZv9e-42">
          <mxGeometry relative="1" as="geometry" />
        </mxCell>
        <mxCell id="K4O4A1Wco0MbeICrZv9e-40" value="Ишлаб чиқариш жойида баҳолаш ишларини ўтказишда иштирок этиш учун ҳодим ажратади." style="rounded=0;whiteSpace=wrap;html=1;" vertex="1" parent="K4O4A1Wco0MbeICrZv9e-35">
          <mxGeometry x="532.5" y="100" width="255" height="80" as="geometry" />
        </mxCell>
        <mxCell id="K4O4A1Wco0MbeICrZv9e-42" value="Белгиланган муддатларда" style="rounded=1;whiteSpace=wrap;html=1;fillColor=#d5e8d4;strokeColor=#82b366;" vertex="1" parent="K4O4A1Wco0MbeICrZv9e-35">
          <mxGeometry x="334" y="125" width="140" height="30" as="geometry" />
        </mxCell>
        <mxCell id="K4O4A1Wco0MbeICrZv9e-90" value="" style="edgeStyle=orthogonalEdgeStyle;rounded=0;orthogonalLoop=1;jettySize=auto;html=1;" edge="1" parent="K4O4A1Wco0MbeICrZv9e-35" source="K4O4A1Wco0MbeICrZv9e-85" target="K4O4A1Wco0MbeICrZv9e-89">
          <mxGeometry relative="1" as="geometry" />
        </mxCell>
        <mxCell id="K4O4A1Wco0MbeICrZv9e-92" value="" style="edgeStyle=orthogonalEdgeStyle;rounded=0;orthogonalLoop=1;jettySize=auto;html=1;" edge="1" parent="K4O4A1Wco0MbeICrZv9e-35" source="K4O4A1Wco0MbeICrZv9e-85" target="K4O4A1Wco0MbeICrZv9e-91">
          <mxGeometry relative="1" as="geometry" />
        </mxCell>
        <mxCell id="K4O4A1Wco0MbeICrZv9e-85" value="&lt;p style=&quot;line-height: 100%; margin-bottom: 0in; direction: ltr; background: transparent; text-indent: 0.26in; margin-right: 0.06in;&quot; lang=&quot;uz-Cyrl-UZ&quot;&gt;&lt;font face=&quot;Times New Roman, serif&quot;&gt;&lt;span style=&quot;font-size: 14px;&quot;&gt;Аризани ўз вақтида кўриб чиқилганлиги, техник регламент талаблари асосида синовлар тўлиқ ўтказилганлиги, маҳсулот идентификацияси тўғри баҳоланганлигини ўрганади ва мувофиқлиги тасдиқланганда сертификатлаштириш органига ҳулоса берилади .&lt;/span&gt;&lt;/font&gt;&lt;/p&gt;" style="whiteSpace=wrap;html=1;rounded=0;align=center;" vertex="1" parent="K4O4A1Wco0MbeICrZv9e-35">
          <mxGeometry x="1390" y="90" width="320" height="100" as="geometry" />
        </mxCell>
        <mxCell id="K4O4A1Wco0MbeICrZv9e-89" value="5 иш куни мобайнида" style="rounded=1;whiteSpace=wrap;html=1;fillColor=#d5e8d4;strokeColor=#82b366;" vertex="1" parent="K4O4A1Wco0MbeICrZv9e-35">
          <mxGeometry x="1220" y="125" width="130" height="30" as="geometry" />
        </mxCell>
        <mxCell id="K4O4A1Wco0MbeICrZv9e-91" value="" style="whiteSpace=wrap;html=1;rounded=0;" vertex="1" parent="K4O4A1Wco0MbeICrZv9e-35">
          <mxGeometry x="1890" y="110" width="120" height="60" as="geometry" />
        </mxCell>
        <mxCell id="K4O4A1Wco0MbeICrZv9e-41" style="edgeStyle=orthogonalEdgeStyle;rounded=0;orthogonalLoop=1;jettySize=auto;html=1;" edge="1" parent="WIyWlLk6GJQsqaUBKTNV-1" source="K4O4A1Wco0MbeICrZv9e-31" target="K4O4A1Wco0MbeICrZv9e-40">
          <mxGeometry relative="1" as="geometry" />
        </mxCell>
        <mxCell id="K4O4A1Wco0MbeICrZv9e-45" value="" style="edgeStyle=orthogonalEdgeStyle;rounded=0;orthogonalLoop=1;jettySize=auto;html=1;" edge="1" parent="WIyWlLk6GJQsqaUBKTNV-1" source="K4O4A1Wco0MbeICrZv9e-40" target="K4O4A1Wco0MbeICrZv9e-44">
          <mxGeometry relative="1" as="geometry" />
        </mxCell>
        <mxCell id="K4O4A1Wco0MbeICrZv9e-47" value="" style="edgeStyle=orthogonalEdgeStyle;rounded=0;orthogonalLoop=1;jettySize=auto;html=1;" edge="1" parent="WIyWlLk6GJQsqaUBKTNV-1" source="K4O4A1Wco0MbeICrZv9e-21" target="K4O4A1Wco0MbeICrZv9e-46">
          <mxGeometry relative="1" as="geometry" />
        </mxCell>
        <mxCell id="K4O4A1Wco0MbeICrZv9e-77" style="edgeStyle=orthogonalEdgeStyle;rounded=0;orthogonalLoop=1;jettySize=auto;html=1;entryX=0.463;entryY=1.004;entryDx=0;entryDy=0;entryPerimeter=0;" edge="1" parent="WIyWlLk6GJQsqaUBKTNV-1" source="K4O4A1Wco0MbeICrZv9e-74" target="K4O4A1Wco0MbeICrZv9e-76">
          <mxGeometry relative="1" as="geometry" />
        </mxCell>
        <mxCell id="K4O4A1Wco0MbeICrZv9e-86" value="" style="edgeStyle=orthogonalEdgeStyle;rounded=0;orthogonalLoop=1;jettySize=auto;html=1;" edge="1" parent="WIyWlLk6GJQsqaUBKTNV-1" source="K4O4A1Wco0MbeICrZv9e-78" target="K4O4A1Wco0MbeICrZv9e-85">
          <mxGeometry relative="1" as="geometry" />
        </mxCell>
      </root>
    </mxGraphModel>
  </diagram>
</mxfile>
